<svg xmlns="http://www.w3.org/2000/svg" viewBox="0 0 64 64" fill="none">
  <rect width="64" height="64" rx="18" fill="#0A0A0A"/>
  <path d="M32 10L49 17V30C49 40.7 42.1 50.1 32 54C21.9 50.1 15 40.7 15 30V17L32 10Z" fill="url(#shield)"/>
  <path d="M25.5 23.5C25.5 20.5 28 18 31 18H33C36 18 38.5 20.5 38.5 23.5V25.5H43V29.5H38.5V32.5C38.5 35.5 36 38 33 38H31C28 38 25.5 35.5 25.5 32.5V29.5H21V25.5H25.5V23.5Z" fill="white" fill-opacity=".92"/>
  <defs>
    <linearGradient id="shield" x1="15" y1="10" x2="53" y2="54" gradientUnits="userSpaceOnUse">
      <stop stop-color="#2DD4BF"/>
      <stop offset="1" stop-color="#6EE7B7"/>
    </linearGradient>
  </defs>
</svg>

